HIERARCHY
ROOT Hips
{
	OFFSET 0.000000 0.000000 0.000000
	CHANNELS 6 Xposition Yposition Zposition Xrotation Yrotation Zrotation
	JOINT LeftUpLeg_virtual
	{
		OFFSET 0.000000 0.000000 0.000000
		CHANNELS 3 Xrotation Yrotation Zrotation
		JOINT LeftUpLeg
		{
			OFFSET 11.394100 -6.187798 -0.413800
			CHANNELS 3 Xrotation Yrotation Zrotation
			JOINT LeftLeg
			{
				OFFSET 0.430247 -32.302673 3.732800
				CHANNELS 3 Xrotation Yrotation Zrotation
				JOINT LeftFoot
				{
					OFFSET -0.430247 -48.264931 -6.423300
					CHANNELS 3 Xrotation Yrotation Zrotation
					JOINT LeftToeBase
					{
						OFFSET 4.230900 -16.068199 23.438400
						CHANNELS 3 Xrotation Yrotation Zrotation
						JOINT LeftToe_End
						{
							OFFSET 4.510700 0.695400 19.974600
							CHANNELS 3 Xrotation Yrotation Zrotation
							End Site
							{
								OFFSET 0 0 0
							}
						}
					}
				}
			}
		}
	}
	JOINT RightUpLeg_virtual
	{
		OFFSET 0.000000 0.000000 0.000000
		CHANNELS 3 Xrotation Yrotation Zrotation
		JOINT RightUpLeg
		{
			OFFSET -11.333700 -6.187798 -0.413800
			CHANNELS 3 Xrotation Yrotation Zrotation
			JOINT RightLeg
			{
				OFFSET -0.430392 -32.302628 3.733000
				CHANNELS 3 Xrotation Yrotation Zrotation
				JOINT RightFoot
				{
					OFFSET 0.430392 -48.264973 -6.423500
					CHANNELS 3 Xrotation Yrotation Zrotation
					JOINT RightToeBase
					{
						OFFSET -4.230900 -16.068199 23.438400
						CHANNELS 3 Xrotation Yrotation Zrotation
						JOINT RightToe_End
						{
							OFFSET -4.510700 0.695400 19.974600
							CHANNELS 3 Xrotation Yrotation Zrotation
							End Site
							{
								OFFSET 0 0 0
							}
						}
					}
				}
			}
		}
	}
	JOINT Spine_virtual
	{
		OFFSET 0.000000 0.000000 0.000000
		CHANNELS 3 Xrotation Yrotation Zrotation
		JOINT Spine
		{
			OFFSET -0.002400 12.777504 0.315300
			CHANNELS 3 Xrotation Yrotation Zrotation
			JOINT Spine1
			{
				OFFSET -0.002067 5.816869 0.032633
				CHANNELS 3 Xrotation Yrotation Zrotation
				JOINT Spine1_split
				{
					OFFSET -0.002067 5.816869 0.032633
					CHANNELS 3 Xrotation Yrotation Zrotation
					JOINT Spine2
					{
						OFFSET -0.002067 5.816869 0.032633
						CHANNELS 3 Xrotation Yrotation Zrotation
						JOINT Neck_virtual
						{
							OFFSET 0.000000 0.000000 0.000000
							CHANNELS 3 Xrotation Yrotation Zrotation
							JOINT Neck
							{
								OFFSET -0.003700 21.199493 -0.826900
								CHANNELS 3 Xrotation Yrotation Zrotation
								JOINT Head
								{
									OFFSET 0.000000 20.442200 4.834800
									CHANNELS 3 Xrotation Yrotation Zrotation
									JOINT HeadTop_End
									{
										OFFSET 0.000000 34.668396 4.968400
										CHANNELS 3 Xrotation Yrotation Zrotation
										End Site
										{
											OFFSET 0 0 0
										}
									}
								}
							}
						}
						JOINT LeftShoulder_virtual
						{
							OFFSET 0.000000 0.000000 0.000000
							CHANNELS 3 Xrotation Yrotation Zrotation
							JOINT LeftShoulder
							{
								OFFSET 3.288150 8.794197 -1.372250
								CHANNELS 3 Xrotation Yrotation Zrotation
								JOINT LeftShoulder_split
								{
									OFFSET 3.288150 8.794197 -1.372250
									CHANNELS 3 Xrotation Yrotation Zrotation
									JOINT LeftArm
									{
										OFFSET 11.953299 -2.279007 -0.146200
										CHANNELS 3 Xrotation Yrotation Zrotation
										JOINT LeftForeArm
										{
											OFFSET 18.448900 0.000000 0.000000
											CHANNELS 3 Xrotation Yrotation Zrotation
											JOINT LeftHand
											{
												OFFSET 29.527798 0.000000 0.000000
												CHANNELS 3 Xrotation Yrotation Zrotation
												End Site
												{
													OFFSET 0 0 0
												}
											}
										}
									}
								}
							}
						}
						JOINT RightShoulder_virtual
						{
							OFFSET 0.000000 0.000000 0.000000
							CHANNELS 3 Xrotation Yrotation Zrotation
							JOINT RightShoulder
							{
								OFFSET -3.249400 8.794197 -1.372250
								CHANNELS 3 Xrotation Yrotation Zrotation
								JOINT RightShoulder_split
								{
									OFFSET -3.249400 8.794197 -1.372250
									CHANNELS 3 Xrotation Yrotation Zrotation
									JOINT RightArm
									{
										OFFSET -11.953299 -2.279007 -0.146200
										CHANNELS 3 Xrotation Yrotation Zrotation
										JOINT RightForeArm
										{
											OFFSET -18.448900 0.000000 0.000000
											CHANNELS 3 Xrotation Yrotation Zrotation
											JOINT RightHand
											{
												OFFSET -29.527802 0.000000 0.000000
												CHANNELS 3 Xrotation Yrotation Zrotation
												End Site
												{
													OFFSET 0 0 0
												}
											}
										}
									}
								}
							}
						}
					}
				}
			}
		}
	}
}
MOTION
Frames: 11
Frame Time: 0.03333333
1.760174 89.157692 25.632122 0.000000 0.000000 0.000000 6.978093 -51.051682 4.884947 -10.734873 17.687702 -4.122264 45.253449 3.055123 -10.067376 -28.537683 -9.779969 15.902647 -2.687586 -9.486982 -6.837053 0.000000 0.000000 0.000000 6.897201 -48.648152 4.826905 -54.450521 -5.696282 2.618457 30.904161 6.162533 -2.831327 6.903678 3.134269 4.870668 3.398050 -2.456213 -2.382231 0.000000 0.000000 0.000000 4.555028 -46.545069 4.215780 15.505907 -6.072643 2.782070 5.729150 -5.749528 2.436806 -0.222590 -2.086246 0.988180 0.000000 0.000000 0.000000 -2.789817 -5.144111 1.586568 1.725736 39.545627 -10.610327 -0.230597 27.962970 -7.481191 0.000000 0.000000 0.000000 -2.085951 -6.443206 1.779064 0.993751 -2.366035 -3.185564 -3.018955 2.182924 -2.032047 -0.480187 -2.111789 -27.554458 -0.561630 -26.270571 -1.767357 0.000000 0.000000 0.000000 -3.717378 -6.022818 2.855355 9.717712 -12.263395 3.284932 -0.294448 1.431797 -1.147779 2.300081 5.836267 77.581926 -6.394359 11.254372 6.087754 0.000000 0.000000 0.000000 
3.563328 89.483047 23.589514 0.000000 0.000000 0.000000 7.870399 -55.584739 6.004192 -10.938428 16.316197 -5.837199 43.269846 2.708082 -9.594294 -28.561715 -10.817282 17.203768 -1.082931 -10.282157 -5.569150 0.000000 0.000000 0.000000 6.584302 -51.446979 5.209789 -52.051772 -5.475628 1.542441 31.624923 5.560419 -3.185500 6.841638 3.729100 5.229067 5.747293 -2.194282 -1.147901 0.000000 0.000000 0.000000 3.972762 -49.861436 4.462504 15.454992 -5.915207 2.221369 4.904784 -5.224509 2.452557 -0.294577 -1.782179 0.714630 0.000000 0.000000 0.000000 -3.878163 -4.516992 1.606477 2.222778 39.955927 -10.925298 0.465483 27.885919 -8.038213 0.000000 0.000000 0.000000 -2.908722 -5.828402 1.947268 0.843639 -1.408234 -3.109374 -1.714516 3.471491 -2.394848 -5.536111 -3.667901 -27.876181 -0.044117 -30.850236 -1.734523 0.000000 0.000000 0.000000 -4.596836 -5.475646 2.824812 10.135525 -11.270641 3.436990 -1.086664 2.035647 -1.631715 3.807010 11.427566 74.192356 -4.917212 14.937853 7.558708 0.000000 0.000000 0.000000 
5.054928 89.735062 21.556768 0.000000 0.000000 0.000000 9.516811 -59.883356 7.809062 -12.539011 14.858971 -7.002181 42.980157 2.985263 -8.409438 -27.668878 -11.175883 16.937582 -0.515331 -11.122819 -4.452421 0.000000 0.000000 0.000000 6.105275 -54.261509 5.521578 -50.111472 -4.664500 0.485416 32.818195 5.308082 -3.507667 9.186239 4.444529 6.638899 6.384166 -1.884535 0.166279 0.000000 0.000000 0.000000 3.416692 -53.006383 4.604537 15.691204 -5.559576 1.963688 4.194758 -4.591987 2.406670 -0.156774 -1.703711 0.706748 0.000000 0.000000 0.000000 -4.809168 -3.860381 1.591707 3.480551 40.186439 -11.698351 0.724956 27.461704 -8.355807 0.000000 0.000000 0.000000 -3.473219 -5.129313 1.998372 0.788426 -0.621455 -3.400450 -0.186430 4.149308 -2.333908 -8.922359 -4.992710 -28.463818 -0.202546 -34.581880 -1.981719 0.000000 0.000000 0.000000 -5.174351 -4.810825 2.685163 10.441196 -9.963022 4.193553 -1.890971 2.177331 -2.065924 5.778527 15.051806 70.130764 -2.982905 19.582465 8.758187 0.000000 0.000000 0.000000 
6.182766 90.152237 19.500025 0.000000 0.000000 0.000000 10.978628 -63.592722 9.604891 -14.380096 13.448251 -8.242717 42.516029 4.019983 -6.625059 -26.913478 -10.490356 15.163782 1.704762 -11.986441 -3.255706 0.000000 0.000000 0.000000 5.252938 -57.162065 5.513075 -48.490272 -3.581401 -0.665338 33.851558 5.174460 -3.816654 12.091147 5.180664 8.326738 6.142429 -1.493089 1.382030 0.000000 0.000000 0.000000 2.401111 -55.766459 4.246399 16.097806 -5.004666 1.937941 3.566480 -3.858037 2.229748 -0.178946 -2.200768 0.786173 0.000000 0.000000 0.000000 -5.475349 -3.171099 1.492722 5.382244 40.247904 -12.743883 0.762068 26.789375 -8.573481 0.000000 0.000000 0.000000 -3.815586 -4.367904 1.870953 0.781170 -0.036563 -4.106882 1.206328 4.224123 -2.043967 -10.716784 -6.295846 -29.065498 -1.123254 -38.036483 -2.574610 0.000000 0.000000 0.000000 -5.455121 -4.068795 2.377004 10.563082 -8.451971 5.381960 -2.473209 1.947648 -2.816856 7.251878 16.388112 65.664168 -0.830332 24.353822 9.452534 0.000000 0.000000 0.000000 
6.969051 90.795921 17.419851 0.000000 0.000000 0.000000 11.343795 -66.358935 10.414702 -15.418100 12.232088 -9.726800 40.361053 5.525563 -4.509392 -26.853722 -9.244474 12.634253 2.748255 -12.938128 -0.698952 0.000000 0.000000 0.000000 4.341434 -59.861533 5.226085 -47.055458 -2.457776 -1.958147 34.617636 4.843705 -4.156123 13.866809 5.607196 9.295384 6.205543 -0.966603 2.241569 0.000000 0.000000 0.000000 1.129829 -58.063916 3.369392 16.518193 -4.329987 2.042082 3.033715 -3.089954 1.887682 -0.202943 -2.861652 0.903240 0.000000 0.000000 0.000000 -5.740520 -2.462263 1.312820 7.708476 40.102250 -13.825400 0.739081 26.069145 -8.842665 0.000000 0.000000 0.000000 -3.980327 -3.592925 1.585241 0.806879 0.439906 -5.132615 2.225489 3.838793 -1.552663 -11.021145 -7.331521 -29.498388 -2.700437 -42.207130 -3.546723 0.000000 0.000000 0.000000 -5.531993 -3.306122 1.931661 10.501043 -6.921319 6.740676 -2.732168 1.312210 -3.617324 7.579655 16.014552 61.556725 1.366598 28.891222 9.561312 0.000000 0.000000 0.000000 
7.491436 91.572525 15.354416 0.000000 0.000000 0.000000 10.496411 -67.947268 9.896752 -15.255292 11.421278 -10.972844 36.578095 7.478557 -2.437904 -27.418329 -8.130653 11.166369 1.731699 -14.225679 3.296239 0.000000 0.000000 0.000000 3.474280 -62.073319 4.643215 -45.810407 -1.360976 -3.483697 35.454884 4.386792 -4.515683 14.323693 5.688112 9.563202 6.713373 -0.284941 2.564919 0.000000 0.000000 0.000000 -0.286778 -59.842532 2.130217 16.703742 -3.602627 2.139411 2.627706 -2.337626 1.424637 -0.435662 -3.964030 0.943330 0.000000 0.000000 0.000000 -5.665742 -1.788493 1.098084 10.122074 39.797982 -14.681379 0.741755 25.621189 -9.268752 0.000000 0.000000 0.000000 -4.069200 -2.831681 1.215247 0.856169 0.997151 -6.095797 3.018966 3.583256 -1.015766 -10.594779 -7.897414 -29.924647 -4.539616 -46.970535 -4.782462 0.000000 0.000000 0.000000 -5.487285 -2.591351 1.433457 10.281452 -5.547402 8.028262 -2.647896 0.547817 -4.179746 6.791252 14.943703 58.330307 3.408946 33.011800 9.157529 0.000000 0.000000 0.000000 
7.802136 92.435783 13.193146 0.000000 0.000000 0.000000 8.901085 -68.549049 8.380811 -15.495099 10.915287 -11.388488 33.748825 9.164628 -0.850227 -26.492562 -7.246575 10.389224 2.674073 -15.588464 5.895415 0.000000 0.000000 0.000000 2.955248 -63.728499 4.044376 -44.450475 -0.285130 -5.234774 36.310290 4.155684 -4.966354 13.748339 5.951930 10.033457 6.524595 0.393367 2.294375 0.000000 0.000000 0.000000 -1.423133 -61.000925 0.932174 16.573893 -2.885771 2.132295 2.432324 -1.650822 0.939517 -0.650963 -5.024619 0.789518 0.000000 0.000000 0.000000 -5.377581 -1.203244 0.909158 12.218033 39.378950 -15.107590 0.806017 25.755018 -9.891206 0.000000 0.000000 0.000000 -4.139303 -2.156057 0.828489 0.935704 1.692312 -6.694609 3.399526 3.714566 -0.869886 -9.837489 -7.801230 -30.608468 -6.135294 -51.738721 -6.032283 0.000000 0.000000 0.000000 -5.428360 -1.997794 1.009217 9.969110 -4.464217 8.988189 -2.145540 -0.252972 -4.323228 5.354933 14.168674 56.161671 5.095960 36.503085 8.393512 0.000000 0.000000 0.000000 
8.112899 93.209030 11.092239 0.000000 0.000000 0.000000 7.714005 -68.627118 7.019017 -16.394240 10.313387 -10.897328 32.827559 10.327640 -0.027947 -23.583359 -6.690720 10.122713 4.442673 -16.956498 7.619839 0.000000 0.000000 0.000000 3.006015 -64.655609 3.812281 -42.495637 0.700362 -6.992138 37.048882 4.258758 -5.563517 12.838927 6.336260 11.138222 4.625458 0.917446 1.720247 0.000000 0.000000 0.000000 -1.578221 -61.572612 0.438173 16.176210 -2.236058 2.017855 2.472364 -1.067894 0.499717 -0.555624 -5.646146 0.598437 0.000000 0.000000 0.000000 -5.001243 -0.740936 0.772207 13.766290 38.824376 -15.054140 1.011746 26.412348 -10.598673 0.000000 0.000000 0.000000 -4.224454 -1.581352 0.481694 1.052937 2.652267 -6.853209 3.605344 3.916925 -0.884711 -8.558934 -7.101247 -31.801265 -7.042034 -55.643707 -6.919270 0.000000 0.000000 0.000000 -5.375139 -1.514393 0.725238 9.623818 -3.665404 9.421031 -1.455934 -0.975960 -4.353044 3.880070 13.976605 55.109176 6.392037 39.265617 7.328615 0.000000 0.000000 0.000000 
8.449651 93.818481 9.043888 0.000000 0.000000 0.000000 7.692566 -68.543148 6.676043 -17.536869 9.462838 -9.800054 33.276989 11.432488 -0.018098 -20.464724 -6.347522 10.515882 5.429936 -18.293241 8.854160 0.000000 0.000000 0.000000 3.440311 -64.895758 3.990061 -39.481202 1.278100 -8.703960 36.909973 4.547413 -6.236471 11.751247 6.475031 12.567236 1.889051 1.232322 1.348457 0.000000 0.000000 0.000000 -1.088316 -61.567393 0.594065 15.626238 -1.684655 1.844195 2.714928 -0.581608 0.155312 -0.504648 -5.773754 0.547914 0.000000 0.000000 0.000000 -4.726362 -0.424209 0.681926 14.528866 38.121383 -14.578371 1.358755 27.327976 -11.210090 0.000000 0.000000 0.000000 -4.324466 -1.115821 0.178349 1.147836 3.861105 -6.598757 3.641998 3.968427 -1.152283 -7.020188 -6.224302 -33.645187 -6.920649 -57.934088 -7.003710 0.000000 0.000000 0.000000 -5.306617 -1.129977 0.565737 9.288148 -3.081199 9.198725 -0.945706 -1.416124 -4.267368 2.889827 14.283817 54.565469 7.242562 41.174894 6.052827 0.000000 0.000000 0.000000 
8.803815 94.146950 7.091034 0.000000 0.000000 0.000000 8.606846 -68.410000 7.276488 -18.623211 8.604508 -8.541613 34.724965 12.792282 -0.657618 -18.645749 -6.026262 11.280448 6.071581 -19.433078 9.148658 0.000000 0.000000 0.000000 4.227099 -64.666298 4.567095 -35.533612 1.179912 -10.267058 35.377207 4.776754 -6.822439 10.252965 6.017438 13.667088 -0.035222 1.358184 1.548646 0.000000 0.000000 0.000000 -0.076515 -61.368328 1.227379 15.171404 -1.268763 1.680443 3.105668 -0.192267 -0.125405 -0.368694 -5.334184 0.555515 0.000000 0.000000 0.000000 -4.572782 -0.227561 0.576965 14.500816 37.299557 -13.825815 1.854509 28.247168 -11.545199 0.000000 0.000000 0.000000 -4.415156 -0.760617 -0.105376 1.186383 5.174148 -6.123057 3.689313 3.554879 -1.542493 -5.155681 -5.533534 -35.889704 -5.972398 -59.000943 -6.360664 0.000000 0.000000 0.000000 -5.219774 -0.827009 0.466159 8.990010 -2.622730 8.416957 -0.724345 -1.565275 -4.139786 2.664900 14.747888 54.201267 7.733264 42.524092 4.571893 0.000000 0.000000 0.000000 
9.035337 94.198769 5.444935 0.000000 0.000000 0.000000 9.966259 -68.221528 8.357319 -19.324600 7.939250 -7.347567 36.724325 14.126225 -1.538674 -18.216255 -5.751944 11.671493 7.021356 -20.279556 8.805709 0.000000 0.000000 0.000000 4.924843 -64.064388 5.083303 -31.233263 0.322294 -11.659345 32.591395 4.856970 -7.168004 8.637137 4.941694 14.105881 -0.440523 1.396512 2.323642 0.000000 0.000000 0.000000 0.956025 -61.205373 1.904594 14.944970 -1.020788 1.545830 3.538087 0.116725 -0.410669 -0.272714 -4.637269 0.567608 0.000000 0.000000 0.000000 -4.529043 -0.100060 0.382789 13.793012 36.380907 -12.943036 2.463463 28.964343 -11.468928 0.000000 0.000000 0.000000 -4.490097 -0.487852 -0.393531 1.143490 6.382409 -5.587902 3.927833 2.877779 -1.596761 -3.012377 -5.095411 -38.118941 -4.501122 -59.141133 -5.236823 0.000000 0.000000 0.000000 -5.099209 -0.563333 0.325066 8.737288 -2.169264 7.360852 -0.959706 -1.275125 -3.935626 3.314352 14.925169 53.810160 8.056111 43.818194 2.900695 0.000000 0.000000 0.000000 
